<svg width="60" height="40" viewBox="0 0 60 40" fill="none" stroke="none" version="1.1" xmlns:xlink="http://www.w3.org/1999/xlink" xmlns="http://www.w3.org/2000/svg">
  <path id="Shape" d="M50.915 32.1428L50.6513 21.2302C50.6513 21.2302 34.6113 26.4108 34.6113 26.4108C33.166 26.7657 31.7402 26.9349 30.3437 26.9404C28.8447 26.9458 27.3701 26.7657 25.9199 26.4108C25.9199 26.4108 10.5977 21.1757 10.5977 21.1757C10.5977 21.1757 10.5977 32.2411 10.5977 32.2411C11.0371 37.9894 25.7881 39.7472 30.3144 39.9874C33.9423 40.1839 48.2734 38.0658 50.1581 34.7631C50.5634 34.0425 50.8173 33.1691 50.915 32.1428C50.915 32.1428 50.915 32.1428 50.915 32.1428L50.915 32.1428ZM57.4141 13.3747L57.4141 26.7111C57.4141 26.7111 57.79 26.7111 57.79 26.7111C58.0488 26.7111 58.2588 26.9458 58.2588 27.2352C58.2588 27.2352 58.2588 30.8217 58.2588 30.8217C58.2588 31.1056 58.0488 31.3458 57.79 31.3458C57.79 31.3458 57.4141 31.3458 57.4141 31.3458C57.4141 31.3458 57.4141 32.6014 57.4141 32.6014C57.8926 32.6996 58.2588 33.1746 58.2588 33.7368C58.2588 33.7368 58.2588 33.7368 58.2588 33.7368C58.2588 34.3701 57.7901 34.8941 57.2236 34.8941C57.2236 34.8941 55.3731 34.8941 55.3731 34.8941C54.8067 34.8941 54.3379 34.3755 54.3379 33.7368C54.3379 33.7368 54.3379 33.7368 54.3379 33.7368C54.3379 33.1746 54.7041 32.6996 55.1826 32.6014C55.1826 32.6014 55.1826 31.3458 55.1826 31.3458C55.1826 31.3458 54.8067 31.3458 54.8067 31.3458C54.5527 31.3458 54.3379 31.111 54.3379 30.8217C54.3379 30.8217 54.3379 27.2352 54.3379 27.2352C54.3379 26.9458 54.5479 26.7111 54.8067 26.7111C54.8067 26.7111 55.1826 26.7111 55.1826 26.7111L55.1826 14.1554C55.1826 14.1554 35.6612 20.9355 35.6612 20.9355C32.126 21.8744 28.5909 21.9399 25.0557 20.9355C25.0557 20.9355 3.50793 13.7459 3.50793 13.7459C3.50793 13.7459 1.55969 13.0963 1.55969 13.0963C-0.867065 11.9881 -0.261599 9.3842 1.99914 8.78371C1.99914 8.78371 26.3692 0.649792 26.3692 0.649792C28.8839 -0.152683 31.3936 -0.27824 33.9083 0.649792C33.9083 0.649792 57.8389 8.68545 57.8389 8.68545C60.4414 9.39512 60.9541 12.0864 57.9268 13.1946C57.9268 13.1946 57.4141 13.3747 57.4141 13.3747L57.4141 13.3747L57.4141 13.3747Z" style="fill-rule:evenodd;mix-blend-mode:normal;fill:#D31E25"/>
</svg>