<?xml version="1.0" encoding="utf-8"?>
<svg width="47.236" height="40" viewBox="0 0 47.236 40" fill="none" stroke="none" version="1.1" xmlns:xlink="http://www.w3.org/1999/xlink" xmlns="http://www.w3.org/2000/svg">
  <path id="Shape" d="M47.0698 15.9712C47.0437 15.4722 47.0176 14.9736 46.9912 14.4756C46.8164 13.8853 46.4915 13.3604 46.2041 12.9014C45.9302 12.8301 45.7319 12.6558 45.4956 12.5864C43.8481 12.0996 42.3401 13.832 42.0325 14.7905C41.8372 15.3989 42.155 16.2358 41.9536 16.916C41.8821 17.1567 41.6758 17.3472 41.5601 17.5454C41.5601 17.5454 41.324 17.5454 41.324 17.5454C41.1885 16.8301 41.4358 15.751 41.2451 14.9482C41.0791 14.2476 41.2681 13.2456 41.0879 12.5078C40.8359 11.4766 40.7729 9.98291 40.7729 8.80859C40.7729 7.51367 40.8831 4.43848 40.458 3.61328C40.2456 3.2002 39.6899 2.646 39.2773 2.43262C39.0225 2.30029 38.7659 2.36182 38.5691 2.19678C38.5691 2.19678 37.231 2.19678 37.231 2.19678C36.9121 2.04492 36.8767 1.46533 36.6799 1.17334C36.3203 0.639648 35.5779 0.257813 34.8696 0.0712891C33.4819 -0.297852 32.2422 0.849609 31.8784 1.56689C31.7676 1.78516 31.6509 2.57617 31.4849 2.66895C31.4849 2.66895 29.9106 2.74756 29.9106 2.74756C28.5056 3.21191 28.1899 4.25635 28.0215 5.97461C27.595 6.15918 27.1235 5.98291 26.6047 6.13232C26.001 6.30518 25.2666 6.68311 24.9519 7.15527C24.4126 7.95361 24.5581 9.54541 24.5581 10.855C24.5581 10.855 24.5581 11.957 24.5581 11.957C24.3606 12.7671 24.4795 13.9985 24.4795 14.9482C24.4795 14.9482 24.4795 20.7729 24.4795 20.7729C24.4795 22.0171 24.2568 23.96 24.5581 25.0229C24.8596 26.0864 25.1494 27.1738 25.5815 28.1719C25.7122 28.4731 26.0002 28.8149 26.1326 29.1162C26.2646 29.4175 26.575 30.3135 26.3687 30.6118C26.26 30.9155 25.7625 31.0303 25.5027 31.1626C25.4082 31.6895 25.5964 33.0952 25.2666 33.4453C24.8606 33.7886 22.5039 33.603 21.8821 33.5239C21.686 33.0747 21.8914 31.6743 21.646 31.3203C21.5261 30.9463 21.1169 30.9023 20.78 30.769C20.5959 29.6885 21.2366 28.9409 21.5671 28.1719C21.9961 27.1729 22.2905 26.0967 22.5903 25.0229C22.8982 23.9214 22.6692 22.2612 22.6692 21.0088C22.6692 21.0088 22.6692 9.43799 22.6692 9.43799C22.6692 8.93359 22.7393 8.33594 22.5903 7.94238C22.2512 7.03955 21.5137 6.41016 20.5439 6.13232C20.1653 6.02295 19.6355 6.23828 19.3633 6.05371C18.95 5.85205 19.0232 4.54395 18.8123 4.08594C18.303 2.97656 17.0413 2.70264 15.6638 2.66895C14.9656 1.08594 14.6145 0.0415039 12.2791 0.0712891C12.2791 0.0712891 11.3345 0.38623 11.3345 0.38623C10.6938 0.770996 10.3035 1.55566 9.91772 2.19678C8.31909 2.18262 7.36108 2.49902 6.76929 3.45605C6.27661 4.25098 6.70703 5.38525 6.45435 6.44727C6.34961 6.88623 6.50317 7.64453 6.37573 8.17871C5.96313 9.91064 6.39307 12.209 5.98218 13.9248C5.81445 14.6245 6.10571 16.9746 5.82471 17.3882C5.82471 17.3882 5.82471 17.5454 5.82471 17.5454C5.52881 17.4961 5.54614 17.4272 5.35254 17.3096C5.32104 17.1567 5.22266 17.0132 5.19507 16.916C5.00464 16.228 5.30908 15.4028 5.11621 14.7905C4.83838 13.9058 4.27881 13.4243 3.54199 12.98C3.17358 12.7573 2.4126 12.3672 1.65308 12.5864C0.0480957 13.0503 0 15.2461 0 17.3096C0.026123 18.0439 0.0524902 18.7788 0.0786133 19.5132C0.56543 21.145 1.14355 22.748 1.8103 24.3149C1.83643 24.4722 1.86304 24.6299 1.88916 24.7871C2.06787 25.2041 2.46997 26.0088 2.75488 26.3613C2.75488 26.3613 2.99097 26.4399 2.99097 26.4399C2.99097 26.4399 3.38452 26.9121 3.38452 26.9121C3.58154 27.0581 3.81763 27.1602 4.0144 27.3057C4.0144 27.3057 4.48657 27.8569 4.48657 27.8569C4.89429 28.1592 5.25488 28.4189 5.66724 28.7227C5.66724 28.7227 5.98218 29.1162 5.98218 29.1162C6.26392 29.3242 6.66382 29.5332 6.8479 29.8247C6.91577 29.9312 6.85669 29.9819 6.92676 30.061C6.92676 30.4497 6.87549 30.6118 6.76929 30.8481C6.44092 30.9629 5.86255 30.9678 5.58862 31.084C5.18945 32.0742 5.43115 33.9824 5.43115 35.2559C5.43115 35.916 5.40674 36.6201 5.58862 37.0664C5.98218 37.2236 6.78101 37.2197 7.16284 37.3809C7.29272 38.0469 7.25415 39.1426 7.32031 39.8213C7.40796 39.8584 7.48804 39.9121 7.5564 39.9785C8.21753 39.9888 8.68506 39.9653 9.052 39.7422C9.04248 39.0767 8.89453 37.8535 9.20947 37.46C9.20947 37.46 9.20947 37.3022 9.20947 37.3022C9.35425 37.251 9.28101 37.2969 9.3667 37.2236C9.3667 37.2236 15.4277 37.2236 15.4277 37.2236C16.3533 37.2236 17.5293 37.1191 18.1038 37.46C18.1179 37.644 18.1108 37.6812 18.1826 37.7744C18.1746 38.4785 18.0967 39.4395 18.3401 39.8999C18.6108 39.959 19.3467 40.0928 19.5994 39.8999C19.5994 39.8999 19.8354 39.8213 19.8354 39.8213C19.9143 39.4038 19.7947 37.8193 19.9929 37.5386C19.9929 37.5386 20.0715 37.3022 20.0715 37.3022C20.448 37.2339 21.231 37.2803 21.4885 37.0664C21.8103 36.8223 21.7246 35.8721 21.8821 35.4922C22.3064 35.4053 24.7944 35.2607 25.1091 35.4922C25.6863 35.7188 25.2085 36.2422 25.4241 36.8301C25.5168 37.0825 25.8484 37.23 26.1326 37.3022C26.1648 37.46 26.2034 37.667 26.2898 37.7744C26.2798 38.5908 26.2341 39.4946 26.5261 39.9785C27.0054 39.9902 27.6997 40.0571 27.9429 39.8213C28.3364 39.3486 27.8193 38.0664 28.179 37.5386C28.2051 37.46 28.2317 37.3809 28.2578 37.3022C28.9568 37.167 29.9509 37.2236 30.7766 37.2236C30.7766 37.2236 35.3418 37.2236 35.3418 37.2236C35.8599 37.2236 37.49 37.0952 37.782 37.3022C37.782 37.3022 37.9392 37.3022 37.9392 37.3022C37.9717 37.46 38.0103 37.667 38.0967 37.7744C38.0864 38.5908 38.0408 39.4946 38.333 39.9785C38.8123 39.9902 39.5066 40.0571 39.7498 39.8213C40.1433 39.3486 39.6262 38.0664 39.9858 37.5386C40.0117 37.46 40.0386 37.3809 40.0645 37.3022C40.4763 37.2314 41.4482 37.3022 41.6389 36.9873C41.8088 36.709 41.7175 36.0557 41.7175 35.6494C41.7175 35.6494 41.7175 32.501 41.7175 32.501C41.7175 32.019 41.783 31.4233 41.5601 31.1626C41.3508 30.8848 40.6289 30.9009 40.3008 30.769C40.2495 30.6235 40.2952 30.6978 40.2219 30.6118C40.2441 29.4805 40.9839 29.2051 41.6389 28.7227C42.3691 28.1836 42.9565 27.3711 43.6853 26.8335C43.9333 26.6504 44.2944 26.5269 44.4724 26.2827C45.0911 25.4331 45.2974 24.3369 45.7319 23.2915C46.2136 22.1313 46.7244 20.769 47.0701 19.5132C47.3101 18.6387 47.2715 16.8364 47.0698 15.9712C47.0698 15.9712 47.0698 15.9712 47.0698 15.9712ZM19.678 28.0142C19.5466 28.312 19.2437 28.6558 19.1272 28.959C19.0747 29.4312 19.0222 29.9033 18.9697 30.3755C18.8948 30.6016 18.6902 30.7363 18.5762 30.9268C18.5762 30.9268 11.9644 30.9268 11.9644 30.9268C10.9968 30.9268 9.60278 31.0786 8.89453 30.769C8.69385 30.2695 8.79297 29.3301 8.50098 28.8799C8.20898 28.4297 7.58862 28.0928 7.16284 27.7783C6.79053 27.5024 6.50781 27.0273 6.13965 26.7549C5.5979 26.3525 5.10767 25.9746 4.56543 25.5742C3.78296 24.9946 3.63403 24.0347 3.22729 23.0552C2.45337 21.1924 1.26489 18.5688 1.88916 15.8926C2.06689 15.1299 1.85767 15.0015 2.20386 14.397C2.77856 14.439 2.87231 14.7183 3.22729 14.9482C3.26025 15.0991 3.35718 15.2432 3.38452 15.3418C3.38452 15.3418 3.38452 17.2305 3.38452 17.2305C3.66406 18.2754 4.43384 19.2104 4.95898 20.0645C5.32324 20.6577 5.41138 21.2554 6.13965 21.481C6.56226 21.771 7.11255 21.3096 7.63501 21.481C7.76807 21.5244 7.97754 21.7368 8.10742 21.7959C8.10742 21.7959 8.34351 21.7959 8.34351 21.7959C9.63989 22.4697 11.0198 23.5215 11.8069 24.7085C12.3113 25.4653 12.52 26.5264 12.9875 27.3057C13.4834 27.2925 14.0659 27.1768 14.3257 26.9121C14.7302 26.418 13.8613 24.8296 13.6172 24.3936C12.4971 22.3887 11.1812 21.375 9.13062 20.3003C8.75195 20.1011 8.31445 19.7949 7.87134 19.6709C7.54932 18.3325 7.5564 14.4976 7.87134 13.1377C8.01123 12.5376 7.90112 11.7891 8.02856 11.2485C8.21118 10.4766 8.03735 8.87061 8.10742 8.1001C8.23242 6.71875 7.82007 4.18555 9.052 3.92822C10.2444 3.67871 10.0752 5.41602 10.0752 6.44727C10.0752 6.44727 10.0752 11.8784 10.0752 11.8784C10.0752 12.8228 9.97827 14.0112 10.2327 14.7119C10.449 14.8062 10.9866 15.0015 11.2559 14.7905C11.4167 14.7925 11.5767 14.7661 11.728 14.7119C12.01 13.9946 11.8855 12.689 11.8855 11.7207C11.8855 11.7207 11.8855 5.58105 11.8855 5.58105C11.8855 4.84033 11.6919 2.76563 11.9644 2.27539C12.0981 2.03467 12.4688 1.97998 12.6726 1.80322C12.8931 1.82666 13.0198 1.85107 13.145 1.96045C13.3606 2.02832 13.374 2.09668 13.5386 2.19678C13.7456 3.16797 13.696 4.60498 13.696 5.81738C13.696 5.81738 13.696 11.7207 13.696 11.7207C13.696 12.46 13.5283 14.833 13.8533 15.1841C14.1682 15.4556 14.9192 15.3203 15.3489 15.2627C15.604 14.6787 15.5063 13.5737 15.5063 12.7441C15.5063 12.7441 15.5063 7.54883 15.5063 7.54883C15.5063 6.81055 15.3008 5.31592 15.6638 4.87305C15.7983 4.66357 15.959 4.63672 16.136 4.47949C16.7178 4.4873 16.824 4.6626 17.1592 4.87305C17.4175 6.15283 17.3167 7.9873 17.3167 9.51709C17.3167 9.51709 17.3167 11.957 17.3167 11.957C17.219 12.5781 17.1711 13.6987 17.3167 14.3184C17.4939 15.0698 17.0098 15.8604 17.3955 16.3647C17.3955 16.3647 17.4741 16.6011 17.4741 16.6011C17.9077 16.6387 18.4927 16.7827 18.8123 16.5225C18.8123 16.5225 18.9697 16.5225 18.9697 16.5225C19.4019 14.2183 18.4502 9.6626 19.4419 8.02148C19.6072 7.98438 19.7317 7.95459 19.8354 7.86377C20.3596 7.90186 20.4573 8.12939 20.78 8.33594C20.9124 9.03613 20.8586 10.0283 20.8586 10.855C20.8586 10.855 20.8586 24.6294 20.8586 24.6294C20.5557 25.7876 20.1609 26.9194 19.678 28.0142C19.678 28.0142 19.678 28.0142 19.678 28.0142ZM45.417 18.4902C45.0999 19.7461 44.7056 20.9819 44.2363 22.1895C43.8633 23.1694 43.7012 24.2358 43.1343 25.0229C42.7478 25.5615 42.0205 25.9678 41.4814 26.3613C40.751 26.8979 40.1638 27.7095 39.4348 28.2505C39.1758 28.4424 38.8201 28.6138 38.6477 28.8799C38.3613 29.3223 38.5847 30.2803 38.2542 30.6904C37.9236 31.1006 36.6013 30.9268 35.8928 30.9268C35.8928 30.9268 30.7766 30.9268 30.7766 30.9268C29.9697 30.9268 28.8984 31.021 28.3364 30.769C28.2781 30.5054 28.1655 30.1592 28.1003 29.9033C28.074 29.5884 28.0479 29.2734 28.0215 28.9585C27.8855 28.6006 27.5493 28.208 27.3918 27.8569C26.9385 26.8125 26.5698 25.7334 26.2898 24.6294C26.2898 24.6294 26.2898 8.49365 26.2898 8.49365C26.2898 8.49365 26.6833 8.02148 26.6833 8.02148C26.8103 7.93164 26.8984 7.96631 26.9983 7.86377C27.3918 7.88965 27.7791 8.00732 27.9429 8.25732C28.2019 8.65088 28.1003 9.52539 28.1003 10.1465C28.1003 10.1465 28.1003 14.5542 28.1003 14.5542C28.1003 15.041 27.957 16.0391 28.179 16.3647C28.179 16.3647 28.179 16.522 28.179 16.522C28.4631 16.5898 29.0605 16.8306 29.3596 16.6011C29.4944 16.5981 29.6277 16.5713 29.7532 16.522C29.906 15.7021 29.832 14.5581 29.832 13.6099C29.832 13.6099 29.832 8.17871 29.832 8.17871C29.832 7.41504 29.6667 5.45117 29.9893 5.03027C30.0989 4.68604 30.3223 4.69336 30.5403 4.479C30.8647 4.479 31.0828 4.49023 31.2488 4.63672C31.8218 5.0127 31.6423 6.22607 31.6423 7.15527C31.6423 7.15527 31.6423 12.9014 31.6423 12.9014C31.6423 13.4526 31.4636 14.6519 31.7209 15.0269C31.7209 15.0269 31.7209 15.1841 31.7209 15.1841C32.1145 15.2793 32.8577 15.5029 33.2166 15.1841C33.2166 15.1841 33.4526 15.0269 33.4526 15.0269C33.4526 15.0269 33.4526 5.81738 33.4526 5.81738C33.4526 4.95166 33.2441 2.99951 33.5315 2.354C33.6707 2.03906 33.9983 2.01172 34.2397 1.80322C34.4602 1.82666 34.5869 1.85107 34.7122 1.96045C35.5464 2.23535 35.2632 3.95508 35.2632 5.03027C35.2632 5.03027 35.2632 12.0356 35.2632 12.0356C35.2632 12.7607 35.0671 14.1963 35.4204 14.6333C35.4465 14.6851 35.4731 14.7378 35.4993 14.7905C35.9541 14.8188 36.5225 14.9863 36.8374 14.7119C36.8374 14.7119 36.9949 14.6333 36.9949 14.6333C37.1938 11.4375 37.0791 7.88574 37.0735 4.55811C37.0735 4.55811 37.467 4.08545 37.467 4.08545C38.7202 3.80566 38.8462 4.39111 38.9626 5.65967C38.9626 5.65967 38.9626 6.76172 38.9626 6.76172C39.1838 7.68457 39.1201 8.84766 39.1201 9.91016C39.1201 9.91016 39.1201 11.0908 39.1201 11.0908C39.4348 12.4014 39.4348 14.0757 39.4348 15.5776C39.4348 15.5776 39.4348 18.2539 39.4348 18.2539C39.4348 18.5908 39.5042 19.1514 39.3562 19.356C39.1343 20.02 37.6741 20.3198 37.0735 20.6938C35.4731 21.689 34.2705 22.9917 33.374 24.7085C33.041 25.3457 32.6655 26.0942 32.7444 26.9121C33.0049 27.0332 33.5259 27.1226 33.7676 27.3057C33.7676 27.3057 34.1611 27.3057 34.1611 27.3057C34.4697 27.1587 34.4248 26.7065 34.5547 26.3613C34.7578 25.8223 35.0269 25.1807 35.3418 24.7085C36.0872 23.5874 38.1299 21.9346 39.5137 21.481C39.5137 21.481 41.009 21.5596 41.009 21.5596C41.2075 21.3496 41.5459 21.2402 41.7175 21.0088C41.7175 21.0088 43.6853 17.5454 43.6853 17.5454C43.9316 16.8999 43.5278 15.605 43.9214 15.1055C44.0491 14.7021 44.3701 14.6528 44.6299 14.397C44.9258 14.4199 44.9243 14.4575 45.1021 14.5542C45.2517 15.3228 45.6531 17.5391 45.417 18.4902C45.417 18.4902 45.417 18.4902 45.417 18.4902Z" style="fill:#D31E25;fill-rule:evenodd;mix-blend-mode:normal;" />
</svg>