<?xml version="1.0" encoding="utf-8"?>
<svg width="16.012" height="16.01" viewBox="0 0 16.012 16.01" fill="none" stroke="none" version="1.1" xmlns:xlink="http://www.w3.org/1999/xlink" xmlns="http://www.w3.org/2000/svg">
  <path id="Path" d="M9.4158 8.00409C9.4158 8.00409 15.7158 1.71409 15.7158 1.71409C16.1079 1.32197 16.1079 0.686214 15.7158 0.294092C15.3237 -0.0980306 14.6879 -0.0980303 14.2958 0.294092C14.2958 0.294092 8.0058 6.59409 8.0058 6.59409C8.0058 6.59409 1.7158 0.294092 1.7158 0.294092C1.32368 -0.0980303 0.687921 -0.0980306 0.295798 0.294092C-0.096324 0.686214 -0.0963237 1.32197 0.295798 1.71409C0.295798 1.71409 6.5958 8.00409 6.5958 8.00409C6.5958 8.00409 0.295798 14.2941 0.295798 14.2941C0.106486 14.4819 0 14.7375 0 15.0041C0 15.2707 0.106485 15.5263 0.295798 15.7141C0.483565 15.9034 0.739161 16.0099 1.0058 16.0099C1.27244 16.0099 1.52803 15.9034 1.7158 15.7141C1.7158 15.7141 8.0058 9.41409 8.0058 9.41409C8.0058 9.41409 14.2958 15.7141 14.2958 15.7141C14.4836 15.9034 14.7392 16.0099 15.0058 16.0099C15.2724 16.0099 15.528 15.9034 15.7158 15.7141C15.9051 15.5263 16.0116 15.2707 16.0116 15.0041C16.0116 14.7375 15.9051 14.4819 15.7158 14.2941C15.7158 14.2941 9.4158 8.00409 9.4158 8.00409Z" style="fill:var(--color-white, white);mix-blend-mode:normal;" />
</svg>