<?xml version="1.0" encoding="utf-8"?>
<svg width="43.851" height="40" viewBox="0 0 43.851 40" fill="none" stroke="none" version="1.1" xmlns:xlink="http://www.w3.org/1999/xlink" xmlns="http://www.w3.org/2000/svg">
  <path id="Shape" d="M13.4803 29.5783C13.6437 29.2611 13.2424 29.0105 13.0838 28.7853C12.861 28.4753 12.6691 28.1343 12.2909 27.9924C11.4567 27.6807 10.3132 28.0225 9.6741 27.5166C8.72255 27.1725 9.32282 23.9483 9.6741 23.3932C10.1253 23.4067 10.4774 23.5518 10.7049 23.7897C11.6264 23.7897 11.2767 23.0943 11.6565 22.6003C11.6303 22.4417 11.6034 22.2831 11.5772 22.1245C11.398 21.8446 10.9888 21.7597 10.7049 21.5694C10.7049 21.5694 10.5464 21.3315 10.5464 21.3315C10.1864 21.0738 9.82397 20.8454 9.51551 20.5386C8.85083 19.8678 8.26548 19.1228 7.771 18.3183C7.41179 17.7347 7.34915 17.0123 6.97804 16.4152C6.58791 15.7879 5.8679 15.4803 5.63001 14.6707C5.35723 13.7334 6.10579 13.2433 6.26438 12.6883C6.39125 12.2498 6.11768 11.5781 6.34368 11.2609C6.42297 10.3364 7.54342 10.3031 8.16748 9.91292C10.027 8.75282 11.7897 7.5158 13.2424 5.94812C13.2424 5.94812 13.6389 5.94812 13.6389 5.94812C13.7848 6.0179 14.2971 7.29615 14.3526 7.53404C15.1162 7.68867 15.7799 7.26681 16.0971 6.74108C16.0971 6.74108 16.6521 6.74108 16.6521 6.74108C16.9995 6.89967 17.5609 9.17467 17.8416 9.67503C18.6797 9.64886 19.1896 9.3182 19.824 9.11996C19.824 9.11996 20.6962 9.04066 20.6962 9.04066C21.1998 8.89079 21.8413 8.70286 22.2028 8.40629C22.0443 7.19148 21.2402 6.1194 20.6962 5.23446C18.6393 1.89056 16.4793 -0.033955 11.0221 0.000935216C10.7636 0.182523 9.44335 0.33715 9.03974 0.47671C8.18889 0.773277 6.42852 1.97064 5.9472 2.6177C4.64825 4.37613 3.58212 6.29515 2.77536 8.32701C1.98795 10.3094 1.26873 12.7977 0 14.2742C0.0206169 15.2947 0.891285 16.1773 1.34803 16.8117C2.8269 18.8734 4.82991 20.5061 7.21592 21.6487C7.32218 22.0563 7.58941 23.256 7.21592 23.6311C7.03989 24.1608 6.40155 24.1608 5.86789 24.3448C5.12806 24.6009 4.29466 25.0442 3.56831 25.2963C3.01324 25.4914 2.275 25.4851 2.06169 26.01C1.98795 26.0972 2.03156 26.0211 1.9824 26.1686C2.41456 26.5651 2.76505 27.0971 3.25113 27.4373C5.51186 29.0232 9.64158 30.292 13.401 29.8162C13.401 29.8162 13.4803 29.5783 13.4803 29.5783ZM43.7713 25.7721C43.6127 25.3383 42.9728 25.2646 42.5819 25.0584C41.532 24.5034 40.4116 23.8896 39.41 23.3139C39.3236 22.9095 39.1777 22.4052 39.0929 21.9659C38.8835 20.8867 40.203 19.6758 40.5995 19.0319C40.9286 18.4967 41.034 17.8671 41.3924 17.3667C41.3924 17.3667 42.0268 16.8117 42.0268 16.8117C42.3311 16.4007 42.5717 15.9463 42.7405 15.4636C43.2345 13.9848 42.497 12.9745 42.1854 11.7367C42.1854 11.7367 42.1854 10.7059 42.1854 10.7059C42.1854 9.53547 42.3805 8.09942 42.1061 7.05827C41.8777 6.19077 41.6169 5.1171 41.1546 4.4415C40.8374 3.98317 40.0087 3.80714 39.7272 3.41066C39.3775 2.91902 39.2752 2.30052 38.9343 1.82474C38.6694 1.45284 38.2801 1.22368 37.9034 0.952485C36.6101 0.0255169 35.8489 -0.00778733 33.6215 0.000935216C33.4319 0.131773 33.1147 0.0104507 32.8285 0.0802311C32.3892 0.188866 31.8769 0.362524 31.4805 0.47671C31.4805 0.47671 30.7668 0.556006 30.7668 0.556006C28.4672 1.32755 26.7164 2.92457 25.8505 5.15517C25.6538 5.66266 24.8846 7.57686 25.3747 8.16841C25.6165 8.48559 25.8346 8.34365 26.2469 8.327C27.9169 8.26039 27.4253 8.24136 27.9914 7.13756C28.1334 6.86161 28.3959 6.6824 28.5465 6.4239C29.3974 6.26531 30.4758 6.61976 31.3219 6.82038C31.3219 6.82038 32.5113 6.82038 32.5113 6.82038C33.3836 7.03368 34.2907 6.83941 35.2074 6.82038C35.9052 6.80611 37.6211 6.31526 37.8241 6.4239C38.5846 6.48654 38.8042 7.15263 39.0929 7.69263C39.4572 8.40167 39.7494 9.14549 39.9651 9.91291C40.0708 10.8116 40.1766 11.7103 40.2823 12.609C40.4655 13.2172 41.2339 13.7786 40.9167 14.8293C40.724 15.4747 40.0579 15.6286 39.7272 16.098C39.5274 16.3827 39.5575 16.703 39.41 17.0495C39.1601 17.5996 38.8685 18.1298 38.5378 18.6355C37.8241 19.7638 36.3381 20.9779 35.2074 21.728C35.117 21.7883 34.9845 21.9968 34.8902 22.0452C34.5254 22.2331 33.9711 22.2283 33.6215 22.3624C33.4803 23.0895 33.7174 23.7056 34.0179 24.1862C35.1051 24.1822 36.1343 23.6731 36.714 23.1553C36.8498 23.1579 36.9841 23.1847 37.1105 23.2346C37.3127 23.7191 37.6949 26.565 37.3484 26.9615C36.8068 27.8076 35.0377 27.7925 33.8593 27.9924C33.4208 28.0669 32.8816 27.7799 32.5113 28.0717C31.8873 28.2683 31.8769 28.9288 31.4805 29.3404C31.6065 30.0239 32.0284 29.6536 32.6699 29.8162C33.5929 30.0541 34.546 29.8519 35.6831 29.8162C37.8622 29.7488 40.9793 28.5474 42.344 27.5959C42.8769 27.2232 43.3574 26.5222 43.8506 26.1686C43.8451 25.9687 43.8506 25.8744 43.7713 25.7721C43.7713 25.7721 43.7713 25.7721 43.7713 25.7721ZM31.4805 34.9704C30.4306 34.5057 29.3807 33.8206 28.4672 33.2259C28.449 32.6772 28.177 31.7137 28.3879 31.0849C28.5925 30.4751 29.2443 29.9478 29.5774 29.4197C29.9619 28.8107 30.1071 28.0257 30.5289 27.4373C31.038 26.7276 31.7223 26.5064 32.0355 25.4549C32.451 24.0585 31.7279 22.9832 31.4805 22.0452C31.4805 22.0452 31.4805 19.9835 31.4805 19.9835C31.4805 18.6513 31.4289 17.1288 31.084 16.098C30.8287 15.3328 30.4314 14.3733 29.8153 13.957C29.5282 13.7635 29.1317 13.7643 28.943 13.4812C28.943 13.4812 28.7051 12.609 28.7051 12.609C28.4196 11.8652 28.1453 10.9327 27.8329 10.2301C27.1795 10.0715 26.1787 10.0612 25.2954 10.0715C24.9782 10.292 24.3089 10.0461 23.8681 10.1508C22.9229 10.3768 21.9023 10.357 20.9341 10.6266C17.7988 11.4988 15.9892 12.835 14.8283 15.7015C14.6697 16.0861 14.7847 16.4374 14.6697 16.891C14.4406 17.7957 14.3526 18.7607 14.3526 19.9835C14.3526 19.9835 14.3526 22.0452 14.3526 22.0452C14.1995 22.6209 13.8768 23.1379 13.7182 23.7897C13.5683 24.4042 13.8387 25.761 14.0354 26.0893C14.3581 26.6293 14.9544 26.9496 15.3041 27.4373C15.6371 27.9028 15.7125 28.5276 16.0178 29.0232C16.2136 29.3404 16.5261 29.6679 16.7314 29.9748C16.8242 30.1143 16.7933 30.2356 16.89 30.3712C16.9868 30.5068 17.1969 30.6028 17.2865 30.7677C17.4499 31.069 17.6346 32.4488 17.3658 32.8294C17.342 33.6097 16.7758 33.6652 16.2557 33.9396C15.1455 34.5263 13.9283 35.1655 12.7666 35.6841C12.7405 35.8427 12.7135 36.0013 12.6873 36.1598C12.6873 36.1598 13.7182 37.27 13.7182 37.27C14.9076 38.1303 16.4142 38.8178 17.9209 39.3317C17.9209 39.3317 19.1103 39.4903 19.1103 39.4903C19.5068 39.6037 20.0206 39.7765 20.4583 39.8867C20.4583 39.8867 21.6478 39.8867 21.6478 39.8867C22.2782 40.0406 23.5509 40.0342 24.1852 39.8867C24.1852 39.8867 25.3747 39.8867 25.3747 39.8867C25.8124 39.7765 26.3262 39.6005 26.7227 39.4903C26.7227 39.4903 27.595 39.411 27.595 39.411C29.2316 38.8955 30.8461 38.1858 32.1148 37.27C32.1148 37.27 33.0664 36.2391 33.0664 36.2391C33.0664 36.025 33.0711 35.8736 32.9871 35.7634C32.7825 35.309 31.9507 35.1797 31.4805 34.9704C31.4805 34.9704 31.4805 34.9704 31.4805 34.9704ZM26.6434 36.5563C26.622 37.6427 25.7053 37.5134 24.8196 37.7458C22.9466 38.2382 20.6463 37.8591 19.2689 37.1907C19.0667 36.2288 19.0413 34.1211 19.5068 33.3052C20.5614 33.3321 20.9571 34.0085 21.8064 34.2567C21.8064 34.2567 22.6786 34.2567 22.6786 34.2567C24.1059 34.2567 25.0821 34.0228 25.7712 33.3052C26.1502 33.3052 26.2739 33.3496 26.4848 33.4638C26.5736 33.865 26.8377 36.2685 26.6434 36.5563C26.6434 36.5563 26.6434 36.5563 26.6434 36.5563ZM23.2337 32.3536C22.5993 32.5122 21.9578 32.1586 21.6478 31.9572C20.7869 31.4127 19.9891 30.7744 19.2689 30.0541C18.6335 29.4067 18.0748 28.6883 17.6037 27.9131C17.3182 27.4484 17.2651 26.8521 16.9693 26.4065C16.5808 25.8228 15.9234 25.5984 15.7006 24.8205C15.408 23.8008 16.239 23.1823 16.4143 22.521C16.4143 22.521 16.4143 20.38 16.4143 20.38C16.6942 19.2072 16.7743 17.791 17.3658 16.891C17.5038 16.6808 17.8249 16.5944 18.0002 16.4152C18.7733 16.4302 19.3141 16.6483 19.9033 16.8117C19.9033 16.8117 21.4892 16.891 21.4892 16.891C22.1981 17.0599 23.6349 17.0575 24.3438 16.891C24.3438 16.891 25.2161 16.891 25.2161 16.891C25.2161 16.891 26.802 16.4152 26.802 16.4152C28.3649 16.4643 28.9652 19.3237 29.3395 20.6972C29.3659 21.3051 29.3923 21.913 29.4188 22.521C29.598 23.1839 30.4203 23.7992 30.1324 24.8205C29.8945 25.6642 29.1095 25.9687 28.7051 26.6443C28.4672 27.0408 28.4672 27.5269 28.2293 27.9131C27.1985 29.5973 25.3588 31.8216 23.2337 32.3536C23.2337 32.3536 23.2337 32.3536 23.2337 32.3536Z" style="fill:#D31E25;fill-rule:evenodd;mix-blend-mode:normal;"/>
</svg>