<?xml version="1.0" encoding="utf-8"?>
<svg width="38.503" height="40" viewBox="0 0 38.503 40" fill="none" stroke="none" version="1.1" xmlns:xlink="http://www.w3.org/1999/xlink" xmlns="http://www.w3.org/2000/svg">
  <path id="Path" d="M36.4095 35.4069C35.28 36.9759 33.6784 38.1803 31.8099 38.8184C31.7253 38.8574 31.6309 38.877 31.5365 38.877C31.4453 38.877 31.3542 38.8574 31.2695 38.8216C31.2695 38.8216 31.2695 38.8411 31.2695 38.8411C31.2695 39.4792 30.7487 40 30.1074 40C30.1074 40 27.6074 40 27.6074 40C26.9694 40 26.4453 39.4792 26.4453 38.8411C26.4453 38.8411 26.4453 20.8952 26.4453 20.8952C26.4453 20.2572 26.9662 19.7331 27.6074 19.7331C27.6074 19.7331 30.1074 19.7331 30.1074 19.7331C30.7454 19.7331 31.2695 20.2539 31.2695 20.8952C31.2695 20.8952 31.2695 21.0059 31.2695 21.0059C31.3542 20.9668 31.4453 20.9473 31.5365 20.9473C31.6081 20.9473 31.6797 20.9603 31.7448 20.9798C31.7448 20.9798 31.7448 20.9831 31.7448 20.9831C33.1641 21.4551 34.4336 22.2591 35.4622 23.2975C35.4622 23.2975 35.4622 19.2546 35.4622 19.2546C35.4622 14.4076 33.8379 10.2604 30.9668 7.3405C30.9668 7.3405 29.694 9.23828 29.694 9.23828C27.1061 6.38998 23.3789 4.5931 19.2513 4.5931C15.0977 4.5931 11.3444 6.41276 8.75651 9.29688C8.75651 9.29688 7.2168 7.41537 7.2168 7.41537C4.38477 10.3027 2.77995 14.3913 2.77995 19.2546C2.77995 19.2546 2.77995 23.8932 2.77995 23.8932C3.88672 22.5651 5.35807 21.543 7.03451 20.9863C7.03451 20.9863 7.03451 20.9831 7.03451 20.9831C7.10287 20.9603 7.17448 20.9473 7.24284 20.9473C7.33399 20.9473 7.42839 20.9668 7.50977 21.0026C7.50977 21.0026 7.50977 20.8919 7.50977 20.8919C7.50977 20.2539 8.03386 19.7298 8.67188 19.7298C8.67188 19.7298 11.1719 19.7298 11.1719 19.7298C11.8099 19.7298 12.334 20.2507 12.334 20.8919C12.334 20.8919 12.334 38.8379 12.334 38.8379C12.334 39.4759 11.8099 39.9967 11.1719 39.9967C11.1719 39.9967 8.67188 39.9967 8.67188 39.9967C8.03386 39.9967 7.50977 39.4759 7.50977 38.8379C7.50977 38.8379 7.50977 38.8184 7.50977 38.8184C7.42839 38.8542 7.33724 38.8737 7.24284 38.8737C7.14518 38.8737 7.05404 38.8509 6.97266 38.8151C5.10417 38.1771 3.5026 36.9727 2.37305 35.4036C1.7806 34.5833 1.31836 33.6654 1.01563 32.679C1.01563 32.679 0 32.679 0 32.679C0 32.679 0 19.2546 0 19.2546C0 13.9583 2.16471 9.14714 5.6543 5.65755C9.14388 2.16797 13.9583 0 19.2513 0C24.5475 0 29.362 2.16797 32.8483 5.6543C36.3379 9.14388 38.5026 13.9551 38.5026 19.2513C38.5026 19.2513 38.5026 32.679 38.5026 32.679C38.5026 32.679 37.7637 32.679 37.7637 32.679C37.4675 33.6556 37.0052 34.5801 36.4095 35.4069C36.4095 35.4069 36.4095 35.4069 36.4095 35.4069L36.4095 35.4069C36.4095 35.4069 36.4095 35.4069 36.4095 35.4069Z" style="fill:#D31E25;mix-blend-mode:normal;" />
</svg>