<?xml version="1.0" encoding="utf-8"?>
<svg width="39.981" height="39.997" viewBox="0 0 39.981 39.997" fill="none" stroke="none" version="1.1" xmlns:xlink="http://www.w3.org/1999/xlink" xmlns="http://www.w3.org/2000/svg">
  <path id="Layer_1-2" d="M26.5777 23.3235C26.5777 20.1332 26.5777 16.9425 26.5777 13.7516C26.5777 13.6052 26.5777 13.4589 26.5847 13.3107C26.6185 12.5959 27.1805 12.0187 27.8942 11.966C28.3095 11.9333 28.7249 11.9404 29.1402 11.9404C30.44 11.9404 31.7397 11.9404 33.0395 11.9404C33.3745 11.9314 33.7056 12.014 33.9971 12.1794C34.4213 12.4289 34.6294 12.8063 34.6638 13.2878C34.7034 13.8433 34.6796 14.3997 34.6796 14.9553C34.6796 18.2867 34.6817 21.6178 34.6858 24.9487C34.6858 27.4371 34.6834 29.9252 34.6787 32.413C34.6787 32.7287 34.699 33.0444 34.6708 33.3601C34.6227 34.0898 34.0228 34.6605 33.2917 34.6722C31.5422 34.7137 29.7918 34.7031 28.0415 34.6722C27.1509 34.6572 26.5918 34.0876 26.5847 33.1926C26.5724 31.5533 26.575 29.914 26.5733 28.2748C26.5715 26.6355 26.5733 24.9733 26.5733 23.3226C26.5733 23.3226 26.5777 23.3235 26.5777 23.3235ZM5.39079 21.3871C4.1792 21.3871 2.96732 21.3871 1.75515 21.3871C1.56776 21.3873 1.38061 21.3737 1.19521 21.3465C0.511943 21.2593 8.42847e-08 20.6778 0 19.989C-1.68104e-07 19.3002 0.511943 18.7187 1.19521 18.6315C1.42185 18.6033 1.65026 18.5918 1.87859 18.5971C1.87859 18.5971 7.23638 18.5971 7.23638 18.5971C7.54677 18.5971 7.85364 18.5865 8.16668 18.5971C8.48196 18.6222 8.78771 18.482 8.9744 18.2267C9.71775 17.2858 10.4558 16.3388 11.2186 15.4138C11.9813 14.4888 12.6938 13.5444 13.4627 12.6326C13.8287 12.1996 14.2564 11.9325 14.8383 11.9563C15.0658 11.966 15.2942 11.9439 15.5226 11.9439C17.0684 11.9439 18.6142 11.9342 20.16 11.9439C20.5532 11.9555 20.9318 11.7944 21.1961 11.503C22.8962 9.78353 24.613 8.08078 26.3228 6.37098C26.6209 6.07294 26.9148 5.77166 27.2046 5.46714C27.4374 5.22289 27.4348 5.04917 27.2046 4.79522C26.9745 4.54126 26.7276 4.34374 26.5336 4.07743C26.2954 3.76202 26.2064 3.35845 26.2899 2.97209C26.3734 2.58573 26.6211 2.25493 26.9683 2.06606C27.2047 1.93735 27.4527 1.83135 27.709 1.7495C27.709 1.7495 32.5025 0.162264 32.5025 0.162264C32.8711 0.0396932 33.2396 -0.0590678 33.6241 0.0414568C34.4098 0.245152 34.8383 1.01143 34.602 1.84473C34.4512 2.37381 34.2625 2.88877 34.0871 3.40991C33.6462 4.71674 33.2053 6.02267 32.7644 7.33126C32.5809 7.8815 32.2353 8.24833 31.6568 8.36384C31.2477 8.44585 30.8817 8.31446 30.5449 8.0896C30.3094 7.93176 30.1322 7.71043 29.9276 7.51467C29.6164 7.21398 29.4444 7.21045 29.1393 7.51467C27.5215 9.12601 25.9049 10.7382 24.2894 12.3513C23.6722 12.9624 23.0549 13.5691 22.4447 14.1819C22.0843 14.5512 21.5867 14.754 21.0709 14.7419C19.3725 14.7419 17.6742 14.7569 15.9767 14.7375C15.5085 14.7322 15.1893 14.8909 14.901 15.256C13.5844 16.9225 12.2467 18.5733 10.9179 20.2302C10.7821 20.3986 10.6533 20.5714 10.5193 20.7425C10.2046 21.1629 9.70382 21.4024 9.17898 21.3836C7.91449 21.3791 6.64911 21.3836 5.38726 21.3836C5.38726 21.3836 5.39079 21.3871 5.39079 21.3871ZM24.0381 25.9892C24.0381 28.3124 24.0381 30.6362 24.0381 32.9606C24.0381 33.3134 24.0064 33.6467 23.8353 33.9624C23.6252 34.3735 23.2126 34.6421 22.7516 34.6678C22.1158 34.7251 21.4765 34.6881 20.839 34.6934C19.7729 34.7013 18.7077 34.6934 17.6425 34.6934C17.3382 34.6934 17.034 34.6837 16.7492 34.5479C16.2139 34.2939 15.99 33.8371 15.9512 33.2799C15.9238 32.8778 15.9318 32.4721 15.9318 32.0683C15.9318 27.8833 15.9318 23.698 15.9318 19.5124C15.9318 19.2434 15.9379 18.9736 15.9476 18.7047C15.9785 17.8775 16.5314 17.3149 17.3585 17.2788C17.7615 17.262 18.1662 17.2673 18.5701 17.2682C19.9043 17.2682 21.2393 17.2612 22.5735 17.2797C23.0955 17.2876 23.5434 17.4931 23.823 17.9675C23.9428 18.1764 24.0106 18.4111 24.0205 18.6518C24.0469 19.0926 24.0434 19.5406 24.0425 19.9859C24.0425 21.9846 24.0425 23.9866 24.0425 25.9918C24.0425 25.9918 24.0381 25.9892 24.0381 25.9892ZM19.9995 37.2065C19.9995 37.2065 37.9881 37.2065 37.9881 37.2065C38.2688 37.1931 38.5501 37.2084 38.8276 37.2523C39.4983 37.3768 39.9839 37.9634 39.981 38.6456C39.9695 39.3069 39.4722 39.851 38.772 39.9683C38.5571 39.9946 38.3403 40.0028 38.1239 39.993C38.1239 39.993 3.71185 39.993 3.71185 39.993C3.00641 39.993 2.29804 39.993 1.58672 39.993C1.23919 40.0091 0.895245 39.9166 0.60264 39.7284C0.135695 39.4181 -0.0893083 38.8503 0.0382913 38.3043C0.174635 37.7216 0.663781 37.2883 1.2587 37.2232C1.5854 37.1964 1.91335 37.1875 2.24103 37.1968C8.16081 37.1968 14.0803 37.1968 19.9995 37.1968C19.9995 37.1968 19.9995 37.2065 19.9995 37.2065ZM5.30085 29.2183C5.30085 27.9838 5.30085 26.7493 5.30085 25.5148C5.30085 25.1823 5.31319 24.8499 5.52747 24.5607C5.8124 24.1713 6.26285 23.9375 6.74523 23.9284C7.02564 23.9125 7.30693 23.9205 7.58734 23.9205C7.58734 23.9205 11.8729 23.9205 11.8729 23.9205C12.3735 23.9007 12.851 24.1323 13.1453 24.5377C13.3605 24.8234 13.4019 25.1462 13.4019 25.4839C13.4019 26.4556 13.4019 27.4274 13.4019 28.3991C13.4019 29.9681 13.4019 31.5368 13.4019 33.1053C13.4019 33.3813 13.3781 33.6555 13.2396 33.905C12.9681 34.3962 12.5545 34.666 11.9901 34.6713C10.9893 34.681 9.98847 34.6793 8.99204 34.681C8.27162 34.681 7.55207 34.674 6.83253 34.681C5.90223 34.6907 5.29644 34.0109 5.29644 33.1679C5.29644 33.1679 5.29644 29.2183 5.29644 29.2183C5.29644 29.2183 5.30085 29.2183 5.30085 29.2183Z" style="fill:#D31E25;fill-rule:evenodd;mix-blend-mode:normal;" />
</svg>