<?xml version="1.0" encoding="utf-8"?>
<svg width="33.593" height="40" viewBox="0 0 33.593 40" fill="none" stroke="none" version="1.1" xmlns:xlink="http://www.w3.org/1999/xlink" xmlns="http://www.w3.org/2000/svg">
  <path id="Shape" d="M32.5157 0L5.58639 0C2.51322 0 0 2.51322 0 5.58639L0 34.7001C0 37.617 2.38626 40.0033 5.29991 40L32.2715 40C32.9975 40 33.59 39.4075 33.59 38.6815L33.59 34.6968L31.2883 34.6968L31.2883 37.8318L5.18922 37.8318C3.568 37.8318 2.24302 36.5069 2.24302 34.8857C2.24302 33.2644 3.568 31.9394 5.18922 31.9394L31.2916 31.9394C32.4603 31.9915 33.5444 31.972 33.5932 31.1321L33.5932 1.07756C33.5932 0.485062 33.1082 0 32.5157 0ZM24.5398 14.8808L24.5398 10.9709L19.139 10.9709L19.139 6.19191L15.2259 6.19191L15.2259 10.9677L9.82507 10.9677L9.82507 14.8808L15.2259 14.8808L15.2259 26.9358L19.139 26.9358L19.139 14.8808L24.5398 14.8808Z" style="fill:#D31E25;fill-rule:evenodd;mix-blend-mode:normal;" />
</svg>