<?xml version="1.0" encoding="utf-8"?>
<svg width="16" height="16" viewBox="0 0 16 16" fill="none" stroke="none" version="1.1" xmlns:xlink="http://www.w3.org/1999/xlink" xmlns="http://www.w3.org/2000/svg">
  <path id="Shape" d="M5.33321 8.00491C5.33062 6.53238 6.52244 5.33615 7.99469 5.33359C9.46722 5.33072 10.6637 6.522 10.6665 7.99482C10.6694 9.46763 9.47757 10.6636 8.00478 10.6664C6.53253 10.6693 5.33606 9.47773 5.33321 8.00491C5.33321 8.00491 5.33321 8.00491 5.33321 8.00491ZM3.89234 8.00779C3.89674 10.2766 5.7394 12.1118 8.00766 12.1073C10.2762 12.103 12.1124 10.2608 12.1079 7.99198C12.1035 5.72394 10.2606 3.88772 7.99185 3.89216C5.72356 3.89656 3.88793 5.73948 3.89234 8.00779C3.89234 8.00779 3.89234 8.00779 3.89234 8.00779ZM11.3018 3.72366C11.3029 4.25347 11.7336 4.68247 12.2635 4.68144C12.7935 4.68038 13.2225 4.24984 13.2217 3.72003C13.2207 3.19022 12.7899 2.76097 12.2598 2.76203C11.7298 2.76306 11.3008 3.19384 11.3018 3.72366C11.3018 3.72366 11.3018 3.72366 11.3018 3.72366ZM4.78009 14.5174C4.00015 14.4835 3.57662 14.3539 3.29437 14.2453C2.92059 14.1006 2.65387 13.9272 2.37315 13.6486C2.09296 13.3689 1.91902 13.103 1.77308 12.73C1.66346 12.4477 1.53152 12.0247 1.49496 11.2447C1.4553 10.4015 1.44624 10.1485 1.44237 8.01244C1.43821 5.87688 1.44599 5.62388 1.4828 4.77991C1.51621 4.0005 1.64662 3.5764 1.75496 3.29441C1.89959 2.92012 2.07249 2.6539 2.35165 2.37322C2.6313 2.0925 2.89724 1.91909 3.27049 1.77315C3.55253 1.66296 3.97553 1.53206 4.75521 1.49503C5.5989 1.45509 5.85162 1.44656 7.98719 1.4424C10.1232 1.43825 10.3762 1.44578 11.2202 1.48284C11.9996 1.51678 12.4236 1.64587 12.7054 1.755C13.0794 1.89962 13.3461 2.07203 13.6266 2.35168C13.907 2.63137 14.081 2.89678 14.2269 3.27084C14.337 3.55206 14.468 3.97559 14.5048 4.75503C14.5449 5.59872 14.554 5.85172 14.5579 7.98729C14.562 10.1234 14.5543 10.3764 14.5172 11.2199C14.4833 11.9998 14.3539 12.4236 14.2451 12.7061C14.1004 13.0796 13.9275 13.3464 13.6481 13.6271C13.3687 13.9067 13.1028 14.0812 12.7293 14.2271C12.4477 14.337 12.0242 14.4682 11.2451 14.5052C10.4014 14.5449 10.1486 14.554 8.01231 14.5579C5.87675 14.562 5.62406 14.554 4.78009 14.5174C4.78009 14.5174 4.78009 14.5174 4.78009 14.5174ZM4.68678 0.055397C3.83556 0.0955849 3.25418 0.231899 2.74612 0.430992C2.22021 0.636024 1.7744 0.910774 1.33093 1.35609C0.886897 1.80165 0.614209 2.24825 0.41074 2.77468C0.213771 3.28403 0.0802704 3.86569 0.0426765 4.71744C0.00536397 5.57075 -0.00319854 5.84291 0.000957713 8.01529C0.00511397 10.1874 0.0146765 10.4601 0.0553641 11.3137C0.0960516 12.1646 0.231896 12.7458 0.430958 13.254C0.63624 13.78 0.910741 14.2256 1.3563 14.6693C1.80162 15.1131 2.24849 15.3855 2.77518 15.5893C3.28399 15.786 3.86587 15.92 4.71737 15.9573C5.57065 15.9949 5.84306 16.0032 8.01491 15.9991C10.1878 15.9949 10.4602 15.9853 11.3135 15.9449C12.1647 15.9042 12.7456 15.7679 13.2541 15.5693C13.78 15.3635 14.2259 15.0895 14.6694 14.6439C15.1129 14.1986 15.3855 13.7517 15.589 13.225C15.786 12.7162 15.92 12.1343 15.957 11.2834C15.9944 10.4295 16.0032 10.1568 15.999 7.9847C15.9949 5.81232 15.9851 5.54016 15.9446 4.68713C15.9042 3.83537 15.7679 3.2545 15.569 2.74593C15.3635 2.22003 15.0893 1.77468 14.644 1.33068C14.1987 0.88718 13.7518 0.613964 13.2251 0.411026C12.716 0.214024 12.1344 0.0797729 11.2829 0.0429611C10.4296 0.00511551 10.1572 -0.00316238 7.98457 0.000961304C5.81247 0.00511551 5.54006 0.014431 4.68678 0.055397C4.68678 0.055397 4.68678 0.055397 4.68678 0.055397Z" style="fill:#FFFFFF;mix-blend-mode:normal;" transform="translate(0 52.831)" />
</svg>