<?xml version="1.0" encoding="utf-8"?>
<svg width="21" height="14.368" viewBox="0 0 21 14.368" fill="none" stroke="none" version="1.1" xmlns:xlink="http://www.w3.org/1999/xlink" xmlns="http://www.w3.org/2000/svg">
  <path id="Shape" d="M1.14161 1.73811e-06C1.14161 1.73811e-06 17.1377 1.73811e-06 17.1377 1.73811e-06C17.2868 -0.000187472 17.4343 0.0303794 17.5718 0.0899035C17.7116 0.151179 17.8382 0.240453 17.9443 0.352557C18.1615 0.571641 18.2846 0.871275 18.2861 1.18459C18.2861 1.18459 18.2861 4.65374 18.2861 4.65374C18.2861 4.7141 18.2387 4.76303 18.1802 4.76303C18.1488 4.76244 18.1191 4.74839 18.0981 4.72425C17.9975 4.61382 17.8824 4.51831 17.7563 4.44045C17.63 4.36367 17.4944 4.3044 17.353 4.26417C17.3082 4.2504 17.2771 4.20838 17.2761 4.16016C17.2761 4.16016 17.2761 1.7381 17.2761 1.7381L12.1201 6.26669L11.3562 6.9383C11.3562 6.9383 9.61133 8.47192 9.61133 8.47192C9.42563 8.63309 9.15445 8.63309 8.96875 8.47192C8.96875 8.47192 7.12989 6.93478 7.12989 6.93478L1.5979 12.6568C1.5979 12.6568 9.04566 12.6568 9.04566 12.6568C9.0736 12.6563 9.10056 12.6674 9.12048 12.6876C9.1404 12.7078 9.15162 12.7355 9.15161 12.7643C9.15161 12.7643 9.15161 12.7978 9.15161 12.7978C9.12256 12.9282 9.09522 13.0587 9.07129 13.1891C9.07129 13.1891 9.07129 13.1891 9.07129 13.1891C9.04737 13.3178 9.02515 13.4553 9.00464 13.5981C8.99629 13.6508 8.95219 13.6896 8.90039 13.6898C8.90039 13.6898 1.14161 13.6898 1.14161 13.6898C0.991994 13.6899 0.843846 13.6594 0.705814 13.5999C0.570129 13.5403 0.446612 13.4548 0.341801 13.3478C0.233304 13.2388 0.146764 13.1088 0.0871621 12.9653C0.0871621 12.9653 0.0871621 12.9653 0.0871621 12.9653C0.0293635 12.8229 -0.000269597 12.6701 3.7224e-06 12.5157C3.7224e-06 12.5157 3.7224e-06 1.17754 3.7224e-06 1.17754C3.80389e-06 1.02324 0.0296262 0.870463 0.0871617 0.728031C0.147956 0.587213 0.234401 0.459747 0.341801 0.352558C0.446017 0.24214 0.569521 0.153025 0.705814 0.0899038C0.843846 0.0303768 0.991994 -0.000185538 1.14161 1.73811e-06C1.14161 1.73811e-06 1.14161 1.73811e-06 1.14161 1.73811e-06ZM11.1289 10.2716L15.0596 14.3683C15.0596 14.3683 15.0596 12.327 15.0596 12.327C17.5445 11.7982 19.503 12.3816 21 14.3313C20.742 10.321 18.0845 8.38543 15.0596 8.25675C15.0596 8.25675 15.0596 6.16961 15.0596 6.16961L11.1289 10.2646L11.1289 10.2716ZM1.00657 11.8106L6.34885 6.27724L1.00657 1.78391L1.00657 11.8106L1.00657 11.8106ZM1.70896 1.03834L9.27806 7.40374L16.5241 1.03834L1.70896 1.03834Z" style="fill:#FFFFFF;fill-rule:evenodd;mix-blend-mode:normal;" />
</svg>