<?xml version="1.0" encoding="utf-8"?>
<svg width="16" height="11.254" viewBox="0 0 16 11.254" fill="none" stroke="none" version="1.1" xmlns:xlink="http://www.w3.org/1999/xlink" xmlns="http://www.w3.org/2000/svg">
  <path id="Shape" d="M15.837 2.42807C15.837 2.42807 15.6808 1.3252 15.2001 0.84095C14.5909 0.204025 13.9088 0.1999 13.597 0.163C11.3597 0 7.9994 0 7.9994 0C7.9994 0 7.9935 0 7.9935 0C7.9935 0 4.6347 0 2.39618 0.163C2.08318 0.201075 1.40198 0.20375 0.793101 0.84095C0.312101 1.3252 0.159151 2.42807 0.159151 2.42807C0.159151 2.42807 0 3.72227 0 5.01915C0 5.01915 0 6.23187 0 6.23187C0 7.52608 0.15915 8.82295 0.15915 8.82295C0.15915 8.82295 0.31535 9.9258 0.7931 10.4109C1.40198 11.0479 2.20218 11.0272 2.55948 11.0951C3.8404 11.2174 8.00058 11.2543 8.00058 11.2543C8.00058 11.2543 11.3638 11.2483 13.6011 11.0883C13.9141 11.0514 14.595 11.0476 15.2042 10.4103C15.6852 9.9261 15.8411 8.82205 15.8411 8.82205C15.8411 8.82205 16.0003 7.52787 16.0003 6.23097C16.0003 6.23097 16.0003 5.01827 16.0003 5.01827C15.9971 3.72405 15.8379 2.4272 15.8379 2.4272C15.8379 2.4272 15.837 2.42807 15.837 2.42807C15.837 2.42807 15.837 2.42807 15.837 2.42807ZM6.342 7.70325L6.342 3.20645L10.6643 5.46238L6.342 7.70325L6.342 7.70325Z" style="fill:#FFFFFF;fill-rule:evenodd;mix-blend-mode:normal;" transform="translate(-0 2.373)" />
</svg>