<?xml version="1.0" encoding="utf-8"?>
<svg width="42.6" height="40.001" viewBox="0 0 42.6 40.001" fill="none" stroke="none" version="1.1" xmlns:xlink="http://www.w3.org/1999/xlink" xmlns="http://www.w3.org/2000/svg">
  <path id="Shape" d="M15.1985 24.7021L18.5751 34.631L20.2704 28.7375C20.2704 28.7375 19.4384 27.8292 19.4384 27.8292C19.064 27.2814 18.9808 26.7891 19.1922 26.3904C19.6429 25.496 20.579 25.6624 21.4457 25.6624C22.3124 25.6624 23.4841 25.4925 23.7719 26.6331C23.848 27.055 23.7422 27.4895 23.4807 27.8292C23.4807 27.8292 22.6486 28.7375 22.6486 28.7375L24.3439 34.631C24.3439 34.631 27.3878 24.7021 27.3878 24.7021C29.5926 26.6851 36.1206 27.0838 38.5509 28.4393C39.3431 28.8608 40.0367 29.4457 40.5859 30.1554C42.0974 32.1523 42.2118 35.3556 42.6001 37.8205C42.4753 39.1344 41.7334 39.9006 40.2669 40.0011C40.2669 40.0011 2.33316 40.0011 2.33316 40.0011C0.866701 39.8902 0.124805 39.1344 0 37.8205C0.388282 35.3348 0.502687 32.1453 2.01421 30.1554C2.55928 29.449 3.2482 28.8664 4.03536 28.4463C6.46213 27.0907 12.9936 26.6921 15.1985 24.709C15.1985 24.709 15.1985 24.7021 15.1985 24.7021ZM18.4122 2.07427C18.3299 2.07722 18.2477 2.06548 18.1695 2.0396C16.0132 3.00684 14.2694 5.12506 13.7944 8.6612C13.7321 9.05612 13.3655 9.32875 12.9693 9.27483C12.7788 9.25651 12.6037 9.16252 12.4831 9.01392C12.3625 8.86533 12.3066 8.67456 12.328 8.4844C12.8792 4.37276 14.9905 1.89747 17.601 0.743019C18.9108 0.175493 20.3366 -0.072842 21.7611 0.0184568C23.1866 0.0957089 24.5796 0.473786 25.8485 1.12783C28.5214 2.51456 30.5564 5.10079 30.702 8.54333C30.7173 8.9511 30.3992 9.2941 29.9915 9.30949C29.5837 9.32487 29.2406 9.00682 29.2252 8.59905C29.1075 5.93574 27.5435 3.54975 25.1482 2.37935C25.0511 2.33082 24.9575 2.28228 24.857 2.23721C24.7723 2.26609 24.6829 2.27902 24.5935 2.27535C23.921 2.26148 23.7476 3.46099 23.706 5.06959C23.706 5.79415 23.706 6.59152 23.706 7.40275C23.706 8.05105 23.7337 8.70974 23.7337 9.13616C23.7334 9.54179 23.4044 9.8704 22.9988 9.8704C22.5932 9.8704 22.2642 9.54179 22.2638 9.13616C22.2638 8.41853 22.2638 7.91238 22.243 7.40276C22.243 6.57072 22.2118 5.75949 22.243 5.01413C22.2812 3.5546 22.4545 2.32389 22.9884 1.58199C22.5592 1.48887 22.1233 1.42975 21.6849 1.40518C21.1372 1.3738 20.5878 1.3982 20.0451 1.47799C20.5339 2.23722 20.7003 3.4506 20.7384 4.88239C20.7592 5.65202 20.7384 6.49445 20.7384 7.35769C20.7384 7.87424 20.7211 8.39773 20.7211 9.12576C20.6949 9.50184 20.3822 9.79354 20.0052 9.79354C19.6282 9.79354 19.3155 9.50184 19.2893 9.12576C19.2893 8.67161 19.2893 7.99905 19.3136 7.33689C19.3136 6.48752 19.3448 5.66242 19.3136 4.91012C19.2754 3.28419 19.0952 2.07427 18.4122 2.07427C18.4122 2.07427 18.4122 2.07427 18.4122 2.07427ZM29.9983 11.7293C30.0537 11.8657 30.1057 12.0009 30.1543 12.1349C30.1543 12.1349 30.1543 12.1349 30.1543 12.1349C30.2305 12.3429 30.2999 12.5579 30.3657 12.7728C30.3657 12.7728 30.3657 12.7936 30.3657 12.7936C30.4489 13.2131 30.4975 13.4246 30.5287 13.5529C30.5287 13.5529 30.5287 13.5529 30.5287 13.5529C30.549 13.6245 30.564 13.6975 30.5738 13.7713C30.5738 13.8371 30.5738 13.9065 30.5738 14.0486C30.5738 14.1908 30.5738 14.4161 30.5738 14.7905C30.5738 14.7905 30.5738 14.7905 30.5738 14.7905C30.5522 15.0611 30.5117 15.3299 30.4524 15.5948C30.3897 15.8749 30.3122 16.1515 30.2201 16.4234C30.2201 16.4234 30.2201 16.4234 30.2201 16.4234C30.0667 16.877 29.8317 17.2987 29.5268 17.668C29.3375 17.9204 29.0747 18.1081 28.7745 18.2053C28.7745 18.2053 28.6185 18.7947 28.6185 18.7947C28.184 20.4884 27.2474 22.0112 25.9317 23.1628C25.9317 23.1628 25.9317 23.1628 25.9317 23.1628C24.7262 24.2001 23.1776 24.7513 21.5878 24.709C19.9677 24.6977 18.4073 24.0963 17.1988 23.0172C15.8549 21.7583 14.8794 20.1571 14.3768 18.3856C14.3456 18.2677 14.2971 18.1325 14.259 18.0112C13.7764 17.911 13.367 17.5937 13.1496 17.1514C12.7724 16.4756 12.5365 15.7302 12.4562 14.9604C12.4157 14.4055 12.4744 13.8479 12.6296 13.3136C12.7583 12.8409 12.9193 12.3776 13.1115 11.9269C12.9624 11.8507 12.8237 11.7709 12.6885 11.6843C12.0015 11.2878 11.4422 10.7032 11.0764 9.99939C11.0764 9.99939 12.4216 9.4135 12.4216 9.4135C12.4216 9.4135 12.4216 9.4135 12.4216 9.4135C12.6687 9.87048 13.0417 10.2471 13.4963 10.4986C15.1361 11.5386 18.0239 12.0171 21.0088 12.0275C23.9938 12.0379 27.0411 11.556 29.0172 10.6234C29.674 10.3596 30.2459 9.9207 30.6708 9.35456C30.6708 9.35456 31.9397 10.0826 31.9397 10.0826C31.4489 10.7938 30.7793 11.363 29.9983 11.7328C29.9983 11.7328 29.9983 11.7293 29.9983 11.7293ZM14.3976 12.5059C13.9158 12.9878 13.7702 13.851 13.8256 14.6934C13.8538 15.1782 13.9495 15.6566 14.1099 16.1148C14.196 16.4239 14.3637 16.7041 14.5953 16.9261C14.5953 16.9261 14.5953 16.9261 14.5953 16.9261C14.6358 16.9598 14.6886 16.9749 14.7409 16.9677C14.8571 16.9319 14.9831 16.947 15.0875 17.0093C15.1895 17.0666 15.2671 17.159 15.3059 17.2693C15.3891 17.5016 15.462 17.7685 15.5348 18.0077C16.0216 19.7142 17.0819 21.2006 18.537 22.2164C19.4604 22.8393 20.5435 23.1835 21.6571 23.2079C22.7466 23.2234 23.8144 22.9026 24.7149 22.2892C26.0019 21.3574 26.9287 20.0107 27.3392 18.4757C27.3982 18.2504 27.4571 18.0458 27.523 17.817C27.523 17.817 27.5992 17.557 27.5992 17.557C27.63 17.4524 27.6946 17.3609 27.783 17.297C27.783 17.297 27.783 17.297 27.783 17.297C27.8756 17.2318 27.9906 17.2068 28.1019 17.2277C28.2267 17.2485 28.3793 17.1549 28.5318 16.985C28.7567 16.7154 28.9316 16.4078 29.0484 16.0767C29.2069 15.4579 29.2539 14.8157 29.187 14.1804C29.0833 13.5762 28.9196 12.9839 28.6982 12.4123C28.6914 12.3838 28.6914 12.3541 28.6982 12.3256C28.6982 12.3256 28.6982 12.3083 28.6982 12.3083C24.8847 13.695 18.4469 13.9307 14.408 12.5197C14.408 12.5197 14.3976 12.5059 14.3976 12.5059Z" style="fill:#D31E25;fill-rule:evenodd;mix-blend-mode:normal;" />
</svg>