<svg width="34.688" height="40" viewBox="0 0 34.688 40" fill="none" stroke="none" version="1.1" xmlns:xlink="http://www.w3.org/1999/xlink" xmlns="http://www.w3.org/2000/svg">
  <path id="Shape" d="M7.8125 1.49414L17.4642 11.7448C17.4642 11.7448 26.862 1.48763 26.862 1.48763C26.7253 1.39974 26.5625 1.34766 26.3867 1.34766C26.3867 1.34766 19.7038 1.34766 19.7038 1.34766C19.7038 1.34766 8.06315 1.38021 8.06315 1.38021C7.972 1.40299 7.88737 1.44206 7.8125 1.49414C7.8125 1.49414 7.8125 1.49414 7.8125 1.49414L7.8125 1.49414ZM1.21745 7.92969L6.08398 7.92969C6.08398 7.92969 6.08398 2.23633 6.08398 2.23633C6.08398 1.8099 6.20443 1.40951 6.41276 1.07096C6.55273 0.485025 7.07682 0.052084 7.70182 0.052084C7.70182 0.052084 7.91667 0.052084 7.91667 0.052084C8.04036 0.0292969 8.16732 0.0195313 8.29427 0.0195313C8.29427 0.0195313 8.29427 0.0162754 8.29427 0.0162754L8.29752 0.0162754L21.6829 0.0162754L27.0085 0C27.0085 0 27.0085 0 27.0085 0C27.3275 0 27.6497 0.113932 27.9036 0.348307C28.1445 0.569662 28.2845 0.856119 28.3236 1.15885C28.4994 1.47787 28.6003 1.8457 28.6035 2.23633C28.6035 2.23633 28.61 2.23633 28.61 2.23633L28.61 2.23958L28.6035 2.23958L28.6035 7.93295C28.6035 7.93295 33.47 7.93295 33.47 7.93295C34.1374 7.93295 34.6875 8.48958 34.6875 9.17318C34.6875 9.17318 34.6875 38.7598 34.6875 38.7598C34.6875 39.4434 34.1406 40 33.47 40C33.47 40 1.21745 40 1.21745 40C0.550129 40 0 39.4401 0 38.7598C0 38.7598 0 9.17318 0 9.17318C0 8.48959 0.546875 7.92969 1.21745 7.92969C1.21745 7.92969 1.21745 7.92969 1.21745 7.92969L1.21745 7.92969ZM16.2435 12.3861L7.40886 3.00456C7.40886 3.00456 7.40886 15.179 7.40886 15.179C7.40886 15.6706 7.85482 16.276 8.30078 16.071C8.30078 16.071 16.2435 12.3861 16.2435 12.3861L16.2435 12.3861L16.2435 12.3861ZM19.3099 14.1602L18.7044 13.8704L17.4414 13.3822L15.7715 14.1048L15.7715 39.8698L19.3099 39.8698L19.3099 14.1602L19.3099 14.1602L19.3099 14.1602ZM27.2754 2.99479L18.6719 12.3828C18.6719 12.3828 26.3867 16.071 26.3867 16.071C26.8294 16.2826 27.2786 15.6706 27.2786 15.179C27.2786 15.179 27.2786 2.99479 27.2786 2.99479L27.2754 2.99479L27.2754 2.99479ZM29.3587 24.3685C29.7298 24.3685 30.0293 24.6712 30.0293 25.0391C30.0293 25.4069 29.7266 25.7096 29.3587 25.7096C28.9876 25.7096 28.6882 25.4069 28.6882 25.0391C28.6882 24.6712 28.9876 24.3685 29.3587 24.3685C29.3587 24.3685 29.3587 24.3685 29.3587 24.3685C29.3587 24.3685 29.3587 24.3685 29.3587 24.3685ZM21.2598 23.903L30.9147 23.903L30.9147 26.2305L21.2598 26.2305L21.2598 23.903L21.2598 23.903L21.2598 23.903Z" style="fill:#D31E25;mix-blend-mode:normal;"/>
</svg>