<?xml version="1.0" encoding="utf-8"?>
<svg width="6.247" height="10.536" viewBox="0 0 6.247 10.536" fill="none" stroke="none" version="1.1" xmlns:xlink="http://www.w3.org/1999/xlink" xmlns="http://www.w3.org/2000/svg">
  <path id="Path" d="M2.4158 5.2458C2.4158 5.2458 5.9558 1.7058 5.9558 1.7058C6.34352 1.31576 6.34352 0.685836 5.9558 0.295798C5.76803 0.106486 5.51244 0 5.2458 0C4.97916 0 4.72357 0.106485 4.5358 0.295798C4.5358 0.295798 0.295798 4.5358 0.295798 4.5358C0.106485 4.72357 0 4.97916 0 5.2458C0 5.51244 0.106485 5.76803 0.295798 5.9558C0.295798 5.9558 4.5358 10.2458 4.5358 10.2458C4.72452 10.433 4.97999 10.5373 5.2458 10.5358C5.5116 10.5373 5.76708 10.433 5.9558 10.2458C6.34352 9.85576 6.34352 9.22584 5.9558 8.8358C5.9558 8.8358 2.4158 5.2458 2.4158 5.2458Z" style="fill:#757575;fill-rule:evenodd;mix-blend-mode:normal;" />
</svg>