<?xml version="1.0" encoding="utf-8"?>
<svg width="56" height="40" viewBox="0 0 56 40" fill="none" stroke="none" version="1.1" xmlns:xlink="http://www.w3.org/1999/xlink" xmlns="http://www.w3.org/2000/svg">
  <path id="Shape" d="M19.2172 9.61573C19.0987 9.92046 18.9802 10.2252 18.8298 10.5946C18.8298 10.5946 18.4196 11.615 18.4196 11.615C18.4196 11.615 17.4124 11.1948 17.4124 11.1948C17.1161 11.0701 16.8108 10.9409 16.5191 10.8116C13.3972 9.47721 11.0455 8.47066 7.54537 9.8235C7.40864 9.87429 7.2628 9.93893 7.11696 10.0036C5.19369 10.8577 3.68515 12.3075 2.85569 14.0759C2.04445 15.8212 1.89861 17.8897 2.70073 20.0182C2.7463 20.1521 2.80555 20.2907 2.86936 20.4384C5.38966 26.2607 12.9916 29.1695 19.2901 31.5797C20.5069 32.046 21.6691 32.4893 22.8039 32.9602C22.8039 32.9602 27.5118 34.9133 27.5118 34.9133C27.5118 34.9133 29.663 29.9221 29.663 29.9221C27.5301 25.702 25.6615 20.9786 27.0059 16.6108C27.0059 16.6108 27.1381 16.2091 27.1381 16.2091C27.5073 15.1841 28.0405 14.3114 28.6877 13.6004C29.3713 12.8478 30.1871 12.2706 31.0849 11.8735C31.9463 11.4903 32.8806 11.2779 33.8377 11.2364C34.7674 11.1948 35.7154 11.3149 36.6451 11.5965C36.6588 11.4857 36.6679 11.3795 36.677 11.2733C36.8274 9.52338 36.481 7.97663 35.7928 6.67458C35.1138 5.39101 34.0974 4.34291 32.8943 3.58569C31.6728 2.81462 30.26 2.34366 28.8062 2.21438C27.1336 2.08048 25.4017 2.38983 23.8385 3.23478C21.1495 4.70304 20.2791 6.91929 19.2172 9.61573C19.2172 9.61573 19.2172 9.61573 19.2172 9.61573L19.2172 9.61573C19.2172 9.61573 19.2172 9.61573 19.2172 9.61573ZM30.9527 32.4015L29.0658 36.7786L28.642 37.7621L27.6621 37.3558C27.6621 37.3558 21.9743 34.9964 21.9743 34.9964C20.9352 34.567 19.7457 34.1099 18.5152 33.6389C11.8384 31.0764 3.77619 27.9921 0.882172 21.3203C0.813808 21.1587 0.745445 20.9832 0.677086 20.8078C-0.348358 18.079 -0.15694 15.4011 0.900402 13.1386C1.94863 10.8993 3.84911 9.0709 6.24636 7.99971C6.41043 7.92583 6.58362 7.85196 6.77048 7.7827C11.0409 6.13437 13.7207 7.23787 17.2345 8.73846C17.2345 8.73846 17.2345 8.73846 17.2345 8.73846C18.4423 5.6588 19.4586 3.12396 22.822 1.30018C24.7635 0.247459 26.9147 -0.140385 28.9929 0.044302C30.7886 0.201286 32.5295 0.783052 34.0335 1.72957C35.5557 2.68533 36.841 4.01046 37.7023 5.64495C38.5774 7.30252 39.0194 9.26482 38.828 11.4672C38.8007 11.7997 38.7551 12.1413 38.6959 12.4922C39.5162 12.9724 40.1497 13.5357 40.6784 14.1683C41.4623 15.1102 42.0137 16.2091 42.6199 17.4557C43.659 16.9109 44.6206 16.4261 45.6597 16.1398C46.7581 15.8397 47.9339 15.7658 49.3605 16.0936C50.1671 16.2783 50.9282 16.5831 51.6164 16.9847C52.3365 17.4003 52.9882 17.9174 53.5534 18.513C54.0319 19.0163 54.4512 19.5704 54.8021 20.166C55.153 20.7616 55.4311 21.3942 55.6316 22.0544C55.8367 22.7285 55.9597 23.4303 55.9916 24.1368C56.0235 24.8201 55.9643 25.5127 55.8139 26.1914C55.6544 26.9117 55.3809 27.6227 54.9981 28.3015C54.6335 28.9479 54.1595 29.5666 53.5716 30.1391C53.2343 30.4715 52.8424 30.7994 52.4094 31.1226C51.981 31.4458 51.507 31.7644 51.0057 32.0783C50.5135 32.3877 49.9939 32.6924 49.4516 32.9925C48.9184 33.288 48.3578 33.5835 47.7835 33.8744C46.9905 34.2807 46.1975 34.664 45.4227 35.0287C44.6571 35.3889 43.8778 35.749 43.1394 36.0907C42.3601 36.4508 41.5899 36.8063 40.8151 37.1757C40.8151 37.1757 34.9815 39.9829 34.9815 39.9829C34.8949 40.0245 34.7946 39.9876 34.7536 39.8998C34.7536 39.8998 32.3244 35.0102 32.3244 35.0102C32.1376 34.6316 31.9279 34.2299 31.7092 33.8098C31.7092 33.8098 31.0164 32.5031 31.0164 32.5031L30.9527 32.4015L30.9527 32.4015L30.9527 32.4015Z" style="fill:#D31E25;mix-blend-mode:normal;" />
</svg>