<?xml version="1.0" encoding="utf-8"?>
<svg width="49.746" height="40" viewBox="0 0 49.746 40" fill="none" stroke="none" version="1.1" xmlns:xlink="http://www.w3.org/1999/xlink" xmlns="http://www.w3.org/2000/svg">
  <g id="SingleElement">
    <rect id="Rectangle" width="23.151" height="2.935" style="fill:#D31E25;fill-rule:evenodd;mix-blend-mode:normal;" transform="translate(13.297 37.065)" />
    <rect id="Rectangle" width="13.902" height="2.935" style="fill:#D31E25;fill-rule:evenodd;mix-blend-mode:normal;" transform="translate(17.922 34.13)" />
    <path id="Shape" d="M47.3224 5.3722e-14C47.3224 5.3722e-14 2.42327 5.3722e-14 2.42327 5.3722e-14C1.08493 -2.78771e-07 0 1.08493 0 2.42327C0 2.42327 0 31.1225 0 31.1225C2.78771e-07 32.4608 1.08493 33.5457 2.42327 33.5457C2.42327 33.5457 47.3224 33.5457 47.3224 33.5457C48.6608 33.5457 49.7457 32.4608 49.7457 31.1225C49.7457 31.1225 49.7457 2.42327 49.7457 2.42327C49.7463 1.08612 48.6619 0.000654553 47.3236 5.3722e-14C47.3236 5.3722e-14 47.3224 5.3722e-14 47.3224 5.3722e-14ZM24.8728 31.0582C24.2661 31.0582 23.7191 30.6925 23.4872 30.1318C23.2552 29.5711 23.3841 28.9259 23.8135 28.4972C24.243 28.0686 24.8885 27.941 25.4487 28.174C26.009 28.4071 26.3736 28.9548 26.3724 29.5615C26.3708 30.3885 25.6999 31.0581 24.8729 31.0582C24.8729 31.0582 24.8728 31.0582 24.8728 31.0582ZM46.8138 25.5042L2.92312 25.5042L2.92312 2.55189L46.8138 2.55189L46.8138 25.5042Z" style="fill:#D31E25;mix-blend-mode:normal;" />
  </g>
</svg>