<?xml version="1.0" encoding="utf-8"?>
<svg width="20" height="16" viewBox="0 0 20 16" fill="none" stroke="none" version="1.1" xmlns:xlink="http://www.w3.org/1999/xlink" xmlns="http://www.w3.org/2000/svg">
  <path id="Shape" d="M10.43 0.0822177C10.0994 -0.0608172 9.71739 -0.0149779 9.43 0.202218C9.43 0.202218 4.65 3.98222 4.65 3.98222C4.65 3.98222 1 3.98222 1 3.98222C0.447715 3.98222 0 4.42993 0 4.98222C0 4.98222 0 10.9822 0 10.9822C0 11.5345 0.447715 11.9822 1 11.9822C1 11.9822 4.65 11.9822 4.65 11.9822C4.65 11.9822 9.38 15.7622 9.38 15.7622C9.55594 15.9034 9.77444 15.9809 10 15.9822C10.1494 15.9847 10.297 15.9503 10.43 15.8822C10.7773 15.7168 10.9989 15.3669 11 14.9822C11 14.9822 11 0.982218 11 0.982218C10.9989 0.597542 10.7773 0.247608 10.43 0.082211C10.43 0.082211 10.43 0.0822177 10.43 0.0822177ZM9 12.9022C9 12.9022 5.62 10.2022 5.62 10.2022C5.44406 10.0611 5.22556 9.98353 5 9.98222C5 9.98222 2 9.98222 2 9.98222L2 5.98222C2 5.98222 5 5.98222 5 5.98222C5.22556 5.98091 5.44406 5.90338 5.62 5.76222C5.62 5.76222 9 3.06222 9 3.06222L9 12.9022ZM17.66 2.32222C17.2679 1.9301 16.6321 1.9301 16.24 2.32222C15.8479 2.71434 15.8479 3.3501 16.24 3.74222C17.4306 4.93095 18.0674 6.56495 17.9951 8.24583C17.9229 9.92671 17.1482 11.5 15.86 12.5822C15.5431 12.8531 15.4276 13.2922 15.5701 13.684C15.7125 14.0758 16.0831 14.3381 16.5 14.3422C16.7337 14.3427 16.9601 14.2613 17.14 14.1122C18.8605 12.6712 19.8966 10.5738 19.9955 8.33169C20.0944 6.08962 19.247 3.90911 17.66 2.32222C17.66 2.32222 17.66 2.32222 17.66 2.32222ZM14.83 5.15222C14.4379 4.7601 13.8021 4.7601 13.41 5.15222C13.0179 5.54434 13.0179 6.1801 13.41 6.57222C13.7856 6.94557 13.9978 7.45264 14 7.98222C14.0005 8.57189 13.7407 9.13179 13.29 9.51218C13.0855 9.68173 12.9569 9.92568 12.9325 10.1902C12.9081 10.4547 12.99 10.7181 13.16 10.9222C13.331 11.1252 13.5757 11.2519 13.8402 11.2745C14.1046 11.297 14.3672 11.2134 14.57 11.0422C15.4751 10.2833 15.9985 9.16329 16 7.98222C15.9944 6.92234 15.5745 5.90668 14.83 5.15223C14.83 5.15223 14.83 5.15222 14.83 5.15222Z" style="fill:white;mix-blend-mode:normal;" />
</svg>